<svg xmlns="http://www.w3.org/2000/svg" version="1.1" xmlns:xlink="http://www.w3.org/1999/xlink" xmlns:svgjs="http://svgjs.com/svgjs" width="512px" height="512px"><svg version="1.1" id="SvgjsSvg1001" xmlns="http://www.w3.org/2000/svg" xmlns:xlink="http://www.w3.org/1999/xlink" x="0px" y="0px" width="512px" height="512px" viewBox="0 0 512 512" enable-background="new 0 0 512 512" xml:space="preserve">
<g>
	<polygon points="63.812,335.052 191.936,335.052 127.874,224.094 	"></polygon>
	<polygon points="256,2.174 191.936,113.136 320.064,113.136 	"></polygon>
	<polygon points="448.188,335.052 384.126,224.094 320.064,335.052 	"></polygon>
	<path d="M127.625,113.136c0-35.242-28.57-63.813-63.813-63.813S0,77.894,0,113.136c0,35.243,28.57,63.814,63.813,63.814
		c11.625,0,22.515-3.125,31.903-8.556l-31.903-55.258H127.625z"></path>
	<path d="M448.188,49.324c-35.24,0-63.813,28.569-63.813,63.813h63.813l-31.902,55.257c9.388,5.432,20.277,8.557,31.902,8.557
		c35.244,0,63.813-28.572,63.813-63.814C512,77.893,483.432,49.324,448.188,49.324z"></path>
	<path d="M224.097,390.756c-19.069,11.034-31.909,31.64-31.909,55.256c0,35.242,28.57,63.814,63.812,63.814
		c35.243,0,63.813-28.572,63.813-63.814c0-23.617-12.839-44.222-31.909-55.256L256,446.014L224.097,390.756z"></path>
</g>
<g id="SvgjsG1000" display="none">
	<g display="inline" opacity="0.5">
		<path fill="#ED1C24" d="M256,10.175l60.599,104.959l1.154,2h2.31h121.196l-60.598,104.959l-1.155,2l1.155,2l60.598,104.959
			H320.063h-2.31l-1.154,2L256,438.012l-60.599-104.959l-1.154-2h-2.31H70.741l60.598-104.959l1.155-2l-1.155-2L70.741,117.135
			h121.196h2.31l1.155-2L256,10.175 M256,2.175l-64.063,110.959H63.813l64.063,110.959L63.813,335.053h128.125L256,446.012
			l64.063-110.959h128.124l-64.062-110.959l64.062-110.959H320.063L256,2.175L256,2.175z" data-darkreader-inline-fill="" style="--darkreader-inline-fill:#b70f15;"></path>
	</g>
</g>
</svg><style>@media (prefers-color-scheme: light) { :root { filter: none; } }
@media (prefers-color-scheme: dark) { :root { filter: invert(100%); } }
</style></svg>